<svg width="66" height="60" viewBox="0 0 66 60" fill="none" xmlns="http://www.w3.org/2000/svg">
<path d="M59.8449 26.8493C59.8449 23.5095 55.9138 20.5478 49.8691 18.7397C51.3234 12.5981 50.6881 7.7121 47.7945 6.05936C47.085 5.66523 46.2843 5.46459 45.4727 5.47756C42.7726 5.47756 39.3604 7.36297 35.9138 10.6252C32.4673 7.38728 29.0643 5.51135 26.3693 5.51135C25.5452 5.49315 24.7314 5.69741 24.0135 6.10261C21.1342 7.76047 20.538 12.6176 21.9729 18.7299C15.9574 20.5283 12.0455 23.4657 12.0358 26.7912C12.0261 30.1163 15.9719 33.0926 22.0165 34.8959C20.5623 41.0423 21.1923 45.9234 24.091 47.5762C24.798 47.9726 25.5979 48.1734 26.4082 48.158C29.113 48.158 32.5257 46.2723 35.9719 43.0101C39.4136 46.248 42.8163 48.1242 45.5162 48.1242C46.34 48.1392 47.153 47.9352 47.8721 47.5329C50.7514 45.8751 51.3429 41.018 49.9128 34.9297C55.9282 33.1072 59.84 30.1696 59.8449 26.8493V26.8493ZM38.1338 11.7207C42.1037 8.16771 44.5855 7.78479 45.4678 7.78479C45.877 7.77161 46.2821 7.86868 46.6409 8.06583C48.0272 8.85598 48.5798 11.6431 48.1385 15.3369C48.0256 16.2802 47.8639 17.217 47.654 18.1435C45.6453 17.6767 43.6083 17.3415 41.556 17.1402C40.3338 15.4251 38.9995 13.7927 37.5617 12.2539C37.7466 12.0701 37.9374 11.8922 38.1338 11.7207V11.7207ZM26.1172 29.5978C26.5024 30.3339 26.9016 31.0627 27.3146 31.7837C27.7315 32.5157 28.1677 33.2575 28.6525 33.9893C27.3763 33.8072 26.1084 33.571 24.8522 33.2815C25.1914 32.0504 25.6227 30.8387 26.1172 29.5978ZM24.7747 20.3683C26.0445 20.0738 27.3271 19.8376 28.6185 19.6606C28.1337 20.3781 27.717 21.115 27.2805 21.8857C26.8444 22.6561 26.4615 23.3398 26.0883 24.0767C25.6079 22.856 25.1698 21.6192 24.7747 20.3683V20.3683ZM27.3 26.8347C27.9136 25.5406 28.575 24.2698 29.2827 23.0247C30.0056 21.7658 30.7769 20.5354 31.5948 19.336C33.0051 19.2293 34.4595 19.1712 35.9574 19.1761C37.4552 19.1809 38.8658 19.2342 40.2667 19.3455C41.0712 20.5186 41.8419 21.7695 42.5691 23.0052C43.296 24.2415 43.9651 25.5357 44.5661 26.8009C43.9568 28.0946 43.2971 29.3639 42.5885 30.606C41.8711 31.8663 41.0809 33.117 40.2762 34.2995C38.8658 34.4111 37.4115 34.4643 35.9138 34.4643C34.4756 34.4639 33.038 34.4056 31.6045 34.2898C30.7872 33.1009 30.0175 31.8801 29.2973 30.63C28.5701 29.3651 27.9253 28.0999 27.3195 26.8347H27.3V26.8347ZM43.2284 19.6754C44.5466 19.8595 45.8216 20.097 47.0287 20.3781C46.6567 21.6164 46.2297 22.8375 45.7489 24.0378C45.3621 23.3016 44.9614 22.5728 44.5469 21.8519C44.1251 21.1198 43.6792 20.3829 43.2476 19.6752H43.2284V19.6754ZM44.5661 31.7547C44.9778 31.0306 45.3754 30.2985 45.7586 29.5589C46.2434 30.8192 46.7282 32.0601 47.0673 33.2718C45.8459 33.558 44.5615 33.7907 43.2284 33.9747C43.7025 33.2482 44.1551 32.5079 44.5855 31.7547H44.5661ZM35.9233 13.902C36.8261 14.8682 37.6834 15.876 38.4924 16.9221C37.6479 16.8853 36.8027 16.8659 35.9574 16.8637C35.0994 16.8637 34.2219 16.8637 33.3737 16.9221C34.2027 15.8458 35.051 14.8327 35.9233 13.902V13.902ZM25.1722 8.08529C25.5399 7.88977 25.9532 7.79609 26.3693 7.81397C27.2427 7.85031 28.0991 8.06635 28.8852 8.44875C30.6616 9.28629 32.2969 10.3951 33.7325 11.7353L34.2995 12.2541C32.8765 13.7816 31.5552 15.4008 30.3441 17.1012C28.2808 17.3011 26.2325 17.6347 24.2123 18.0997C23.9991 17.1596 23.8246 16.2384 23.7276 15.3515C23.2233 11.6918 23.8051 8.89975 25.1673 8.10474L25.1722 8.08529V8.08529ZM22.6077 32.6611C21.697 32.3831 20.8008 32.0596 19.9224 31.6918C16.4808 30.2374 14.3481 28.3712 14.3481 26.7766C14.3481 25.1819 16.4905 23.3252 19.9273 21.8954C20.79 21.538 21.6701 21.2242 22.5642 20.955C23.1702 22.9632 23.9087 24.929 24.7747 26.8395C23.927 28.7311 23.2032 30.6757 22.6077 32.6611V32.6611ZM33.7566 41.9195C29.7867 45.4727 27.3049 45.8508 26.418 45.8508C26.0087 45.8643 25.6034 45.7671 25.2449 45.5695C23.8583 44.7796 23.306 41.9921 23.747 38.2986C23.8596 37.3567 24.0214 36.4217 24.2318 35.4969C26.241 35.9597 28.2777 36.2932 30.3295 36.4954C31.5502 38.2116 32.8846 39.844 34.3238 41.3817L33.7566 41.9195V41.9195ZM35.9719 39.7335C35.0994 38.8026 34.2414 37.7944 33.398 36.7135C34.2317 36.7524 35.0799 36.7716 35.9379 36.7716C36.7959 36.7716 37.6733 36.7716 38.5216 36.7183C37.683 37.7944 36.8297 38.8026 35.9671 39.7335H35.9719ZM46.7233 45.5503C46.3555 45.7517 45.9402 45.8505 45.5211 45.8362C44.6388 45.8362 42.1281 45.4484 38.1724 41.9097L37.6055 41.3911C39.0269 39.8635 40.3466 38.2442 41.556 36.5438C43.6213 36.3468 45.6714 36.0133 47.6926 35.5455C47.9059 36.4857 48.0756 37.4066 48.1774 38.2938C48.6574 41.9486 48.0999 44.7407 46.7185 45.5308L46.7233 45.5503V45.5503ZM51.9582 31.7642C51.0946 32.1179 50.2147 32.4301 49.3213 32.7C48.713 30.692 47.973 28.7262 47.1062 26.8155C47.9577 24.926 48.6847 22.9828 49.2827 20.9985C50.1934 21.2766 51.0896 21.6002 51.968 21.9681C55.4047 23.4222 57.5425 25.2884 57.5377 26.8833C57.5325 28.4779 55.3953 30.315 51.9534 31.745L51.9585 31.7645L51.9582 31.7642ZM35.9233 31.2702C38.381 31.2728 40.3755 29.2827 40.3781 26.8249C40.3806 24.3675 38.3908 22.373 35.933 22.3705C33.4756 22.3679 31.4811 24.3577 31.4783 26.8152C31.477 27.3998 31.591 27.9788 31.8139 28.5192C32.0367 29.0596 32.3639 29.5508 32.7768 29.9646C33.1897 30.3784 33.6801 30.7067 34.22 30.9307C34.76 31.1547 35.3388 31.27 35.9233 31.27V31.2702ZM6.35474 0V53.6355H65.5259V0H6.35474ZM63.2138 51.3281H8.67195V2.31209H63.2138V51.3281V51.3281ZM22.0119 34.8959C20.5575 41.0423 21.1877 45.9234 24.0862 47.5762C24.7931 47.9726 25.593 48.1734 26.4034 48.158C29.1081 48.158 32.5208 46.2723 35.9671 43.0101C39.4087 46.248 42.8115 48.1242 45.5113 48.1242C46.3351 48.1392 47.1481 47.9352 47.8672 47.5329C50.7465 45.8751 51.338 41.018 49.908 34.9297C55.9233 33.1264 59.8352 30.1893 59.84 26.8687C59.8449 23.5481 55.909 20.567 49.8642 18.7591C51.3186 12.6176 50.6833 7.73155 47.7896 6.07855C47.0801 5.68443 46.2794 5.48379 45.4678 5.49676C42.7677 5.49676 39.3555 7.38242 35.909 10.6446C32.4625 7.40674 29.0595 5.53054 26.3645 5.53054C25.5403 5.51263 24.7266 5.71688 24.0086 6.12207C21.1293 7.77993 20.5332 12.637 21.9681 18.7494C15.9525 20.5478 12.0406 23.4852 12.0309 26.8103C12.0214 30.1358 15.9719 33.0829 22.0165 34.8959H22.0116H22.0119ZM33.7469 41.9195C29.7769 45.4727 27.2951 45.8508 26.4082 45.8508C25.999 45.8643 25.5937 45.7671 25.2352 45.5695C23.8489 44.7796 23.2963 41.9921 23.7373 38.2986C23.8499 37.3567 24.0117 36.4217 24.2221 35.4969C26.2312 35.9597 28.268 36.2932 30.3198 36.4954C31.5405 38.2116 32.8749 39.844 34.3141 41.3817L33.7469 41.9195V41.9195ZM45.7635 24.038C45.3766 23.3017 44.9758 22.5727 44.5612 21.8516C44.1396 21.1196 43.6889 20.3975 43.243 19.6752C44.5612 19.8595 45.8362 20.097 47.0433 20.3781C46.6752 21.617 46.2498 22.8383 45.7683 24.0378H45.7632L45.7635 24.038ZM47.0819 33.2475C45.8605 33.5337 44.5761 33.7663 43.2428 33.9506C43.7058 33.221 44.1519 32.4807 44.5807 31.7304C44.9952 31.0078 45.3928 30.2757 45.7732 29.5345C46.282 30.8192 46.7233 32.0506 47.0722 33.2718L47.0819 33.2478V33.2475ZM44.5564 26.7766C43.9471 28.0703 43.2874 29.3396 42.5788 30.5817C41.8613 31.842 41.0712 33.0926 40.2667 34.2752C38.8561 34.3868 37.4017 34.44 35.9041 34.44C34.4659 34.4396 33.0283 34.3814 31.5948 34.2657C30.7775 33.0769 30.0078 31.856 29.2875 30.606C28.5745 29.3662 27.9083 28.1001 27.2903 26.8103C27.9039 25.5163 28.5652 24.2454 29.2729 23.0004C29.9959 21.7415 30.7672 20.5111 31.585 19.3117C33.0366 19.2011 34.4919 19.1477 35.9476 19.1517C37.4455 19.1566 38.8561 19.2099 40.257 19.3214C41.0615 20.4945 41.8322 21.7451 42.5593 22.9812C43.2863 24.2172 43.9602 25.5357 44.5612 26.8009L44.5564 26.7766V26.7766ZM28.6525 33.9895C27.3763 33.8073 26.1084 33.5711 24.8522 33.2815C25.2266 32.0434 25.6551 30.8223 26.1367 29.6218C26.5219 30.3581 26.9211 31.0869 27.334 31.808C27.7507 32.54 28.1677 33.2575 28.6522 33.9893L28.6525 33.9895ZM27.3 21.8711C26.8819 22.59 26.4843 23.3206 26.1077 24.0621C25.614 22.8493 25.1693 21.6171 24.7747 20.3686C26.0445 20.074 27.3271 19.8377 28.6185 19.6606C28.1677 20.3781 27.7364 21.1196 27.3003 21.8711H27.3ZM35.9668 39.7333C35.0945 38.8026 34.2365 37.7944 33.3931 36.7135C34.2268 36.7524 35.0751 36.7716 35.933 36.7716C36.791 36.7716 37.6685 36.7716 38.5167 36.7183C37.7116 37.7604 36.8609 38.7665 35.9671 39.7335L35.9668 39.7333ZM46.7185 45.5503C46.3506 45.7517 45.9354 45.8505 45.5162 45.8362C44.6339 45.8362 42.1232 45.4484 38.1676 41.9097L37.6006 41.3911C39.022 39.8635 40.3417 38.2442 41.5511 36.5438C43.6165 36.3468 45.6665 36.0133 47.6878 35.5455C47.901 36.4857 48.0707 37.4066 48.1726 38.2938C48.6574 41.9486 48.0999 44.7407 46.7185 45.5308V45.5503V45.5503ZM49.2778 20.9936C50.1886 21.2717 51.0848 21.5953 51.9631 21.9632C55.3999 23.4173 57.5377 25.2835 57.5328 26.8784C57.5277 28.4731 55.395 30.349 51.9534 31.7791C51.0898 32.1326 50.2098 32.4448 49.3165 32.7146C48.7081 30.7066 47.9682 28.7408 47.1014 26.8301C47.9544 24.9279 48.6815 22.9717 49.2778 20.9742V20.9936V20.9936ZM38.1289 11.7401C42.0989 8.18716 44.5807 7.80424 45.463 7.80424C45.8721 7.79107 46.2773 7.88814 46.636 8.08529C48.0223 8.87544 48.5749 11.6626 48.1337 15.3564C48.0207 16.2996 47.859 17.2364 47.6491 18.163C45.6405 17.6961 43.6035 17.3609 41.5511 17.1596C40.329 15.4445 38.9946 13.8122 37.5569 12.2733C37.7395 12.0793 37.9321 11.8948 38.1338 11.7207L38.1289 11.7401V11.7401ZM35.9233 13.902C36.8261 14.8682 37.6834 15.876 38.4924 16.9221C37.6479 16.8853 36.8027 16.8659 35.9574 16.8637C35.0994 16.8637 34.2219 16.8637 33.3737 16.9221C34.2027 15.8458 35.051 14.8327 35.9233 13.902V13.902ZM25.1722 8.08529C25.5399 7.88977 25.9532 7.79609 26.3693 7.81397C27.2427 7.85031 28.0991 8.06635 28.8852 8.44875C30.6616 9.28629 32.2969 10.3951 33.7325 11.7353L34.2995 12.2541C32.8765 13.7816 31.5552 15.4008 30.3441 17.1012C28.2808 17.3011 26.2325 17.6347 24.2123 18.0997C23.9991 17.1596 23.8246 16.2384 23.7276 15.3515C23.2233 11.6918 23.8051 8.89975 25.1673 8.10474L25.1722 8.08529V8.08529ZM19.9273 21.8954C20.79 21.538 21.6701 21.2242 22.5642 20.955C23.1702 22.9632 23.9087 24.929 24.7747 26.8395C23.924 28.7293 23.197 30.6722 22.5983 32.6562C21.6874 32.3782 20.7911 32.0547 19.9127 31.6869C16.4711 30.2328 14.3384 28.3663 14.3384 26.7717C14.3384 25.1771 16.4905 23.3252 19.9273 21.8954V21.8954ZM35.9233 22.3799C33.4658 22.3774 31.4714 24.3675 31.4688 26.8249C31.4663 29.2827 33.4561 31.2771 35.9138 31.2797C38.3711 31.2822 40.3658 29.2924 40.3683 26.8347C40.3728 26.2481 40.2611 25.6665 40.0397 25.1233C39.8183 24.5801 39.4916 24.086 39.0784 23.6697C38.6652 23.2534 38.1737 22.9229 37.6322 22.6974C37.0907 22.4719 36.5099 22.3558 35.9233 22.3559V22.3799V22.3799ZM35.9233 22.3799C33.4658 22.3774 31.4714 24.3675 31.4688 26.8249C31.4663 29.2827 33.4561 31.2771 35.9138 31.2797C38.3711 31.2822 40.3658 29.2924 40.3683 26.8347C40.3728 26.2481 40.2611 25.6665 40.0397 25.1233C39.8183 24.5801 39.4916 24.086 39.0784 23.6697C38.6652 23.2534 38.1737 22.9229 37.6322 22.6974C37.0907 22.4719 36.5099 22.3558 35.9233 22.3559V22.3799V22.3799ZM35.9233 22.3799C33.4658 22.3774 31.4714 24.3675 31.4688 26.8249C31.4663 29.2827 33.4561 31.2771 35.9138 31.2797C38.3711 31.2822 40.3658 29.2924 40.3683 26.8347C40.3728 26.2481 40.2611 25.6665 40.0397 25.1233C39.8183 24.5801 39.4916 24.086 39.0784 23.6697C38.6652 23.2534 38.1737 22.9229 37.6322 22.6974C37.0907 22.4719 36.5099 22.3558 35.9233 22.3559V22.3799V22.3799ZM59.8449 26.859C59.8449 23.5192 55.9138 20.5572 49.8691 18.7494C51.3234 12.6079 50.6881 7.72182 47.7945 6.06883C47.085 5.6747 46.2843 5.47406 45.4727 5.48703C42.7726 5.48703 39.3604 7.37269 35.9138 10.6349C32.4673 7.39726 29.0643 5.52107 26.3691 5.52107C25.5449 5.50288 24.7311 5.70713 24.0132 6.11234C21.1339 7.7702 20.5378 12.6273 21.9727 18.7397C15.9571 20.538 12.0453 23.4754 12.0355 26.8009C12.0258 30.1258 15.9717 33.1024 22.0162 34.9054C20.5621 41.0517 21.192 45.9332 24.0908 47.5862C24.7978 47.9824 25.5976 48.1832 26.408 48.1677C29.1127 48.1677 32.5254 46.282 35.9717 43.0198C39.4133 46.2577 42.8161 48.1339 45.516 48.1339C46.3397 48.1489 47.1527 47.9449 47.8718 47.5427C50.7511 45.8845 51.3426 41.0277 49.9126 34.9394C55.9279 33.1072 59.8398 30.1696 59.8446 26.8493V26.859H59.8449ZM38.1338 11.7204C42.1037 8.16745 44.5855 7.78453 45.4678 7.78453C45.877 7.77136 46.2821 7.86843 46.6409 8.06558C48.0272 8.85573 48.5798 11.6429 48.1385 15.3367C48.0256 16.2799 47.8639 17.2167 47.654 18.1433C45.6453 17.6764 43.6083 17.3412 41.556 17.1399C40.3338 15.4248 38.9995 13.7925 37.5617 12.2536C37.7466 12.0698 37.9374 11.892 38.1338 11.7204V11.7204ZM26.1172 29.5975C26.5024 30.3337 26.9016 31.0624 27.3146 31.7834C27.7315 32.5155 28.1677 33.2572 28.6525 33.989C27.3763 33.8069 26.1084 33.5708 24.8522 33.2813C25.1914 32.0501 25.6227 30.8384 26.1172 29.5975ZM24.7747 20.3681C26.0445 20.0736 27.3271 19.8374 28.6185 19.6603C28.1337 20.3778 27.717 21.1147 27.2805 21.8854C26.8444 22.6558 26.4615 23.3395 26.0883 24.0764C25.6079 22.8558 25.1698 21.6189 24.7747 20.3681V20.3681ZM27.3 26.8344C27.9136 25.5404 28.575 24.2695 29.2827 23.0244C30.0056 21.7656 30.7769 20.5351 31.5948 19.3358C33.0051 19.229 34.4595 19.1709 35.9574 19.1758C37.4552 19.1807 38.8658 19.2339 40.2667 19.3453C41.0712 20.5183 41.8419 21.7692 42.5691 23.005C43.296 24.2413 43.9651 25.5354 44.5661 26.8006C43.9568 28.0943 43.2971 29.3637 42.5885 30.6057C41.8711 31.8661 41.0809 33.1167 40.2762 34.2992C38.8658 34.4108 37.4115 34.4641 35.9138 34.4641C34.4756 34.4636 33.038 34.4054 31.6045 34.2895C30.7872 33.1007 30.0175 31.8798 29.2973 30.6298C28.5701 29.3648 27.9253 28.0996 27.3195 26.8344H27.3V26.8344ZM43.2284 19.6752C44.5466 19.8592 45.8216 20.0968 47.0287 20.3778C46.6567 21.6161 46.2297 22.8373 45.7489 24.0375C45.3621 23.3013 44.9614 22.5726 44.5469 21.8516C44.1251 21.1196 43.6792 20.3827 43.2476 19.6749H43.2284V19.6752ZM44.5661 31.7545C44.9778 31.0304 45.3754 30.2983 45.7586 29.5586C46.2434 30.8189 46.7282 32.0598 47.0673 33.2716C45.8459 33.5577 44.5615 33.7904 43.2284 33.9744C43.7025 33.248 44.1551 32.5076 44.5855 31.7545H44.5661ZM35.9233 13.9017C36.8261 14.868 37.6834 15.8757 38.4924 16.9218C37.6479 16.8851 36.8027 16.8656 35.9574 16.8635C35.0994 16.8635 34.2219 16.8635 33.3737 16.9218C34.2027 15.8455 35.051 14.8324 35.9233 13.9017V13.9017ZM25.1722 8.08529C25.5399 7.88977 25.9532 7.79609 26.3693 7.81397C27.2427 7.85031 28.0991 8.06635 28.8852 8.44875C30.6616 9.28629 32.2969 10.3951 33.7325 11.7353L34.2995 12.2541C32.8765 13.7816 31.5552 15.4008 30.3441 17.1012C28.2808 17.3011 26.2325 17.6347 24.2123 18.0997C23.9991 17.1596 23.8246 16.2384 23.7276 15.3515C23.2233 11.6918 23.8051 8.89975 25.1673 8.10474L25.1722 8.08529V8.08529ZM22.6077 32.6611C21.697 32.3831 20.8008 32.0596 19.9224 31.6918C16.4808 30.2374 14.3481 28.3712 14.3481 26.7766C14.3481 25.1819 16.4905 23.3252 19.9273 21.8954C20.79 21.538 21.6701 21.2242 22.5642 20.955C23.1702 22.9632 23.9087 24.929 24.7747 26.8395C23.927 28.7311 23.2032 30.6757 22.6077 32.6611V32.6611ZM33.7566 41.9195C29.7867 45.4727 27.3049 45.8508 26.418 45.8508C26.0087 45.8643 25.6034 45.7671 25.2449 45.5695C23.8583 44.7796 23.306 41.9921 23.747 38.2986C23.8596 37.3567 24.0214 36.4217 24.2318 35.4969C26.241 35.9597 28.2777 36.2932 30.3295 36.4954C31.5502 38.2116 32.8846 39.844 34.3238 41.3817L33.7566 41.9195V41.9195ZM35.9719 39.7335C35.0994 38.8026 34.2414 37.7944 33.398 36.7135C34.2317 36.7524 35.0799 36.7716 35.9379 36.7716C36.7959 36.7716 37.6733 36.7716 38.5216 36.7183C37.683 37.7944 36.8297 38.8026 35.9671 39.7335H35.9719ZM46.7233 45.5503C46.3555 45.7517 45.9402 45.8505 45.5211 45.8362C44.6388 45.8362 42.1281 45.4484 38.1724 41.9097L37.6055 41.3911C39.0269 39.8635 40.3466 38.2442 41.556 36.5438C43.6213 36.3468 45.6714 36.0133 47.6926 35.5455C47.9059 36.4857 48.0756 37.4066 48.1774 38.2938C48.6574 41.9486 48.0999 44.7407 46.7185 45.5308L46.7233 45.5503V45.5503ZM51.9582 31.7642C51.0946 32.1179 50.2147 32.4301 49.3213 32.7C48.713 30.692 47.973 28.7262 47.1062 26.8155C47.9577 24.926 48.6847 22.9828 49.2827 20.9985C50.1934 21.2766 51.0896 21.6002 51.968 21.9681C55.4047 23.4222 57.5425 25.2884 57.5377 26.8833C57.5325 28.4779 55.3953 30.315 51.9534 31.745L51.9585 31.7645L51.9582 31.7642ZM35.9233 31.2702C38.381 31.2728 40.3755 29.2827 40.3781 26.8249C40.3806 24.3675 38.3908 22.373 35.933 22.3705C33.4756 22.3679 31.4811 24.3577 31.4783 26.8152C31.477 27.3998 31.591 27.9788 31.8139 28.5192C32.0367 29.0596 32.3639 29.5508 32.7768 29.9646C33.1897 30.3784 33.6801 30.7067 34.22 30.9307C34.76 31.1547 35.3388 31.27 35.9233 31.27V31.2702ZM2.32182 57.6877V4.03292L0 6.3596V60H59.1615L61.4784 57.6879H2.32182V57.6877Z" fill="#09D3AC"/>
</svg>
