<svg width="53" height="60" viewBox="0 0 53 60" fill="none" xmlns="http://www.w3.org/2000/svg">
<path d="M4.81286 54.0021L0 0H52.9029L48.0836 53.9936L26.4193 60L4.81286 54.0021Z" fill="#1572B6"/>
<path d="M26.4502 55.4086L43.9573 50.555L48.0759 4.41504H26.4502V55.4086Z" fill="#33A9DC"/>
<path d="M26.4502 23.979H35.2145L35.8188 17.1968H26.4502V10.5732H43.0573L42.8988 12.3497L41.2723 30.6025H26.4502V23.979V23.979Z" fill="white"/>
<path d="M26.4922 41.1815L26.4622 41.19L19.0865 39.1972L18.6151 33.915H11.9658L12.8937 44.3143L26.4601 48.0815L26.4922 48.0729V41.1815V41.1815Z" fill="#EBEBEB"/>
<path d="M34.6513 30.3242L33.8542 39.1935L26.4678 41.1864V48.0778L40.0449 44.3149L40.1456 43.1964L41.2963 30.3242H34.6513V30.3242Z" fill="white"/>
<path d="M26.475 10.5732V17.1968H10.4764L10.3435 15.7075L10.0414 12.3497L9.88281 10.5732H26.475V10.5732ZM26.4514 23.979V30.6025H19.1678L19.035 29.1132L18.735 25.7554L18.5764 23.979H26.4514V23.979Z" fill="#EBEBEB"/>
</svg>
