<svg width="44" height="60" viewBox="0 0 44 60" fill="none" xmlns="http://www.w3.org/2000/svg">
<path d="M0 48.43L0.363313 47.9214L17.5456 15.3183L17.5819 14.9732L10.0078 0.745768C9.3729 -0.445995 7.58628 -0.144632 7.37818 1.18951L0 48.43Z" fill="#FFC24A"/>
<path d="M23.1037 25.7346L28.7433 19.9589L23.102 9.18956C22.5665 8.17013 21.0713 8.16705 20.5415 9.18956L17.5273 14.9374V15.4268L23.1035 25.7346H23.1037Z" fill="#F4BD62"/>
<path d="M0 48.4298L0.164629 48.2641L0.762906 48.0211L22.7494 26.1162L23.028 25.358L17.5433 14.9062L0 48.4298Z" fill="#F6820C"/>
<path d="M23.808 59.4765L43.7064 48.3791L38.0242 13.3835C37.8463 12.2886 36.5031 11.8558 35.7193 12.6408L0 48.4294L19.7842 59.4756C20.3992 59.819 21.0917 59.9993 21.796 59.9994C22.5003 59.9996 23.193 59.8196 23.808 59.4765" fill="#FDE068"/>
<path d="M43.528 48.2862L37.8889 13.5563C37.7126 12.4696 36.5955 12.02 35.8177 12.7992L0.220703 48.3615L19.7878 59.2982C20.398 59.6389 21.0853 59.8179 21.7842 59.818C22.4832 59.8182 23.1705 59.6396 23.781 59.2992L43.5282 48.286L43.528 48.2862Z" fill="#FCCA3F"/>
<path d="M23.8077 59.1503C23.1926 59.4933 22.5 59.6733 21.7958 59.6732C21.0915 59.673 20.399 59.4927 19.7841 59.1494L0.159153 48.262L0 48.4302L19.7841 59.4764C20.399 59.8198 21.0916 60.0001 21.7959 60.0002C22.5002 60.0004 23.1928 59.8204 23.8079 59.4773L43.7062 48.3799L43.6575 48.0801L23.8079 59.1504L23.8077 59.1503Z" fill="#EEAB37"/>
</svg>
