<svg width="60" height="60" viewBox="0 0 60 60" fill="none" xmlns="http://www.w3.org/2000/svg">
<path d="M58.8685 27.3267L32.6719 1.13151C31.1642 -0.377169 28.7173 -0.377169 27.2077 1.13151L21.7679 6.57136L28.6686 13.4721C30.2722 12.9302 32.1111 13.2937 33.3894 14.572C34.6737 15.8585 35.0347 17.7131 34.4797 19.3219L41.1301 25.9725C42.7391 25.4182 44.5956 25.7768 45.8806 27.064C47.6767 28.8593 47.6767 31.7691 45.8806 33.5656C44.0841 35.3623 41.1744 35.3623 39.3769 33.5656C38.026 32.2132 37.6923 30.2292 38.3762 28.5649L32.1741 22.3629L32.1734 38.6841C32.623 38.9064 33.0336 39.2 33.3894 39.5536C35.1854 41.3489 35.1854 44.2589 33.3894 46.0568C31.5929 47.8526 28.6817 47.8526 26.8878 46.0568C25.0918 44.2589 25.0918 41.3492 26.8878 39.5538C27.3182 39.1232 27.8297 38.7822 28.3927 38.5505V22.0772C27.8289 21.847 27.3171 21.5058 26.8878 21.0738C25.527 19.7149 25.1998 17.7183 25.8971 16.0474L19.0946 9.24418L1.13203 27.2055C-0.377345 28.7156 -0.377345 31.1627 1.13203 32.6716L27.3291 58.8673C28.8373 60.3762 31.2837 60.3762 32.7938 58.8673L58.8683 32.7933C60.3772 31.2839 60.3772 28.8354 58.8683 27.3267" fill="#DE4C36"/>
</svg>
