<svg width="54" height="60" viewBox="0 0 54 60" fill="none" xmlns="http://www.w3.org/2000/svg">
<path fill-rule="evenodd" clip-rule="evenodd" d="M31.8261 6.87579L44.1634 13.9992C44.5196 13.6223 44.9283 13.2988 45.377 13.0388C47.9356 11.5678 51.1992 12.4412 52.6854 15C54.1564 17.5588 53.283 20.8222 50.7242 22.3084C50.2789 22.5649 49.799 22.7559 49.2993 22.8758V37.1278C49.7936 37.2478 50.2682 37.4376 50.709 37.6914C53.283 39.1776 54.1564 42.4412 52.6702 45C51.1992 47.5586 47.9203 48.4319 45.3615 46.9612C44.8658 46.6768 44.4193 46.3142 44.0391 45.8876L31.7768 52.9671C31.9564 53.5109 32.0476 54.0799 32.047 54.6526C32.047 57.5943 29.6569 60 26.6997 60C23.7425 60 21.3525 57.6095 21.3525 54.6526C21.3525 54.1269 21.428 53.6192 21.5688 53.1396L9.2348 46.0183C8.88252 46.3877 8.47953 46.7052 8.03791 46.9612C5.46389 48.4319 2.20027 47.5586 0.729289 45C-0.741488 42.4412 0.131884 39.1776 2.69046 37.6914C3.13123 37.4375 3.60588 37.2477 4.10012 37.1276V22.8758C3.60042 22.7559 3.12055 22.5649 2.67524 22.3084C0.116448 20.8376 -0.756923 17.5588 0.714062 15C2.18505 12.4412 5.46368 11.5678 8.02247 13.0388C8.46867 13.2975 8.8754 13.6188 9.23021 13.9931L21.5711 6.86786C21.4256 6.37411 21.352 5.86198 21.3525 5.34723C21.3525 2.39045 23.7425 0 26.6997 0C29.6569 0 32.047 2.39025 32.047 5.34723C32.047 5.87872 31.9698 6.39165 31.8261 6.87579ZM30.5407 9.07059L42.9075 16.2107C42.7105 16.899 42.6541 17.62 42.7414 18.3306C42.8287 19.0412 43.0581 19.727 43.4158 20.3472C44.1686 21.6568 45.3949 22.5249 46.756 22.8633V37.133C46.6865 37.1499 46.6175 37.1684 46.5488 37.188L30.397 9.21347C30.4458 9.16675 30.4938 9.11919 30.5407 9.0708V9.07059ZM23.0058 9.2166L6.85415 37.1908C6.78431 37.1706 6.71407 37.1518 6.64347 37.1344V22.8633C8.00453 22.5249 9.23084 21.6568 9.98364 20.3472C10.3421 19.7258 10.5717 19.0386 10.6586 18.3265C10.7456 17.6144 10.6882 16.8921 10.4899 16.2027L22.8531 9.06475C22.9029 9.11627 22.9538 9.16696 23.0058 9.21639V9.2166ZM28.1939 10.4838L44.3417 38.4517C43.9719 38.8046 43.6548 39.2091 43.4004 39.6526C43.1466 40.0933 42.9568 40.568 42.8368 41.0622H10.5631C10.4429 40.568 10.253 40.0933 9.99908 39.6526C9.74377 39.2122 9.42731 38.8102 9.05917 38.4586L25.2102 10.485C25.6944 10.6245 26.1958 10.695 26.6997 10.6945C27.2185 10.6945 27.7197 10.621 28.1939 10.4838ZM30.6542 51.0502L42.9406 43.9564C42.9038 43.8406 42.8709 43.7236 42.842 43.6056H10.5562C10.5391 43.6749 10.5206 43.7439 10.5007 43.8125L22.8473 50.9411C23.3458 50.4226 23.9442 50.0105 24.6063 49.7293C25.2683 49.4482 25.9804 49.304 26.6997 49.3053C27.4442 49.304 28.1806 49.4586 28.8617 49.7591C29.5428 50.0596 30.1534 50.4994 30.6542 51.0502V51.0502Z" fill="#E535AB"/>
</svg>
