<svg width="53" height="60" viewBox="0 0 53 60" fill="none" xmlns="http://www.w3.org/2000/svg">
<path d="M4.815 54.0021L0 0H52.9071L48.0857 53.9936L26.4214 60L4.815 54.0021Z" fill="#E44F26"/>
<path d="M26.4531 55.4096L43.9603 50.556L48.0788 4.41602H26.4531V55.4096Z" fill="#F1662A"/>
<path d="M26.4533 24.4448H17.689L17.0848 17.6626H26.4533V11.0391H9.84619L10.0048 12.8176L11.6312 31.0683H26.4533V24.4448V24.4448ZM26.4533 41.6455L26.4233 41.6541L19.0476 39.6633L18.5762 34.3812H11.9269L12.8548 44.7783L26.4233 48.5455L26.4533 48.5369V41.6455Z" fill="#EBEBEB"/>
<path d="M26.4307 24.4448V31.0683H34.5864L33.8192 39.6591L26.4307 41.6519V48.5433L40.01 44.7783L40.1085 43.6598L41.6642 26.2233L41.8271 24.4448H26.4307V24.4448ZM26.4307 11.0391V17.6626H42.4292L42.5621 16.1755L42.8642 12.8176L43.0228 11.0391H26.4307V11.0391Z" fill="white"/>
</svg>
