<svg width="60" height="60" viewBox="0 0 60 60" fill="none" xmlns="http://www.w3.org/2000/svg">
<path d="M0 0H60V60H0V0Z" fill="#F7DF1E"/>
<path d="M15.7766 50.1406L20.368 47.3618C21.2539 48.9324 22.0597 50.2613 23.9926 50.2613C25.8454 50.2613 27.0137 49.5366 27.0137 46.7175V27.5461H32.6521V46.7972C32.6521 52.6372 29.2288 55.2954 24.2343 55.2954C19.7237 55.2954 17.1055 52.9594 15.7764 50.1401L15.7766 50.1406ZM35.7146 49.5364L40.3056 46.8783C41.5143 48.852 43.085 50.3018 45.8638 50.3018C48.2003 50.3018 49.69 49.1337 49.69 47.5226C49.69 45.5895 48.1595 44.9046 45.5818 43.7773L44.1725 43.1726C40.1045 41.4413 37.4061 39.2663 37.4061 34.6749C37.4061 30.4458 40.6281 27.2236 45.6627 27.2236C49.2472 27.2236 51.8249 28.4724 53.6774 31.7346L49.2871 34.5542C48.3203 32.8224 47.2736 32.1378 45.6625 32.1378C44.0111 32.1378 42.9639 33.185 42.9639 34.5542C42.9639 36.2457 44.0111 36.9307 46.4275 37.9779L47.837 38.5819C52.63 40.6362 55.3283 42.7304 55.3283 47.4422C55.3283 52.5174 51.3411 55.2961 45.9845 55.2961C40.7488 55.2961 37.3656 52.7991 35.7144 49.5366" fill="black"/>
</svg>
