<svg width="60" height="60" viewBox="0 0 60 60" fill="none" xmlns="http://www.w3.org/2000/svg">
<path d="M59.7546 33.8093C61.8544 17.3723 50.2462 2.34492 33.8393 0.24539C17.4323 -1.85438 2.34492 9.75375 0.24539 26.1607C-1.85438 42.5677 9.75375 57.6251 26.1607 59.7546C42.5977 61.8544 57.6251 50.2463 59.7546 33.8093Z" fill="#FF6C37"/>
<path d="M40.828 19.2616L28.1701 31.9195L24.6006 28.35C37.0485 15.9023 38.2782 16.9821 40.8278 19.2616H40.828Z" fill="white"/>
<path d="M28.1707 32.2195C28.0807 32.2195 28.0207 32.1895 27.9607 32.1295L24.3614 28.5602C24.333 28.5331 24.3104 28.5005 24.2949 28.4644C24.2795 28.4284 24.2715 28.3895 24.2715 28.3503C24.2715 28.311 24.2795 28.2722 24.2949 28.2361C24.3104 28.2 24.333 28.1675 24.3614 28.1404C37.0191 15.4825 38.3388 16.6823 41.0083 19.0818C41.0683 19.1418 41.0983 19.2018 41.0983 19.2918C41.0983 19.3818 41.0683 19.4418 41.0083 19.5018L28.3507 32.1295C28.3207 32.1895 28.2307 32.2195 28.1707 32.2195V32.2195ZM25.0214 28.3502L28.1707 31.4997L40.3786 19.2918C38.1591 17.3123 36.6591 16.7123 25.0214 28.3504V28.3502Z" fill="#FF6C37"/>
<path d="M31.7999 35.5496L28.3506 32.1L41.0082 19.4424C44.3978 22.8619 39.3287 28.4107 31.7999 35.5496Z" fill="white"/>
<path d="M31.7994 35.8488C31.7094 35.8488 31.6494 35.8188 31.5896 35.7588L28.1401 32.3093C28.0801 32.2493 28.0801 32.1893 28.0801 32.0993C28.0801 32.0095 28.1101 31.9493 28.1701 31.8895L40.828 19.2316C40.855 19.2032 40.8876 19.1805 40.9237 19.1651C40.9598 19.1496 40.9987 19.1416 41.038 19.1416C41.0772 19.1416 41.1161 19.1496 41.1522 19.1651C41.1883 19.1805 41.2209 19.2032 41.248 19.2316C41.6309 19.586 41.9335 20.0184 42.1353 20.4996C42.3371 20.9808 42.4334 21.4996 42.4177 22.0212C42.3577 25.3507 38.5787 29.5798 32.0396 35.7588C31.9496 35.8188 31.8596 35.8488 31.7996 35.8488H31.7994ZM28.7701 32.0993C30.6896 34.0491 31.4996 34.8288 31.7994 35.1288C36.8384 30.3298 41.7275 25.4107 41.7577 22.0212C41.7877 21.2414 41.4877 20.4614 40.9777 19.8616L28.7701 32.0993V32.0993Z" fill="#FF6C37"/>
<path d="M24.6613 28.4399L27.2108 30.9895C27.2708 31.0495 27.2708 31.1095 27.2108 31.1695C27.1808 31.1995 27.1808 31.1995 27.1508 31.1995L21.8717 32.3392C21.6017 32.3692 21.3617 32.1892 21.3017 31.9195C21.2717 31.7695 21.3317 31.6195 21.4217 31.5295L24.4813 28.4699C24.5413 28.4099 24.6313 28.3799 24.6613 28.4399V28.4399Z" fill="white"/>
<path d="M21.7817 32.6397C21.3317 32.6397 21.002 32.2797 21.002 31.8299C21.002 31.6199 21.092 31.4099 21.242 31.2599L24.3012 28.2004C24.4812 28.0504 24.7213 28.0504 24.9013 28.2004L27.4508 30.7499C27.6308 30.8999 27.6308 31.1699 27.4508 31.3499C27.3908 31.4099 27.3308 31.4399 27.2408 31.4699L21.9617 32.6097C21.9017 32.6097 21.8417 32.6397 21.7817 32.6397ZM24.5712 28.7704L21.6317 31.7099C21.5717 31.7699 21.5417 31.8599 21.6017 31.9499C21.6317 32.0399 21.7217 32.0697 21.8117 32.0399L26.7608 30.9599L24.5712 28.7704V28.7704Z" fill="#FF6C37"/>
<path d="M47.5172 12.2433C45.5977 10.3836 42.5081 10.4436 40.6486 12.3933C38.7888 14.3429 38.8488 17.4024 40.7986 19.2619C41.5681 20.0055 42.5621 20.4735 43.6255 20.5929C44.6889 20.7123 45.7619 20.4763 46.6772 19.9219L43.2577 16.5024L47.517 12.2433H47.5172Z" fill="white"/>
<path d="M44.1571 20.9119C41.3076 20.9119 38.998 18.6023 38.998 15.7528C38.998 12.9033 41.3076 10.5938 44.1571 10.5938C45.4766 10.5938 46.7666 11.1037 47.7266 12.0335C47.7864 12.0935 47.8164 12.1535 47.8164 12.2435C47.8164 12.3335 47.7864 12.3935 47.7264 12.4535L43.6771 16.5026L46.8566 19.6821C46.9766 19.8021 46.9766 19.9821 46.8566 20.1021L46.7966 20.1621C46.0166 20.6419 45.0869 20.9121 44.1571 20.9121V20.9119ZM44.1571 11.2237C41.6376 11.2237 39.5978 13.2633 39.6278 15.7828C39.6278 18.3023 41.6676 20.3421 44.1871 20.3121C44.8769 20.3121 45.5669 20.1621 46.1966 19.8321L43.0473 16.7126C42.9873 16.6526 42.9573 16.5926 42.9573 16.5026C42.9573 16.4128 42.9873 16.3526 43.0473 16.2928L47.0666 12.2733C46.2566 11.5835 45.2369 11.2237 44.1571 11.2237V11.2237Z" fill="#FF6C37"/>
<path d="M47.6069 12.3334L47.5469 12.2734L43.2578 16.5025L46.6471 19.892C46.9771 19.682 47.3069 19.442 47.5769 19.172C48.0313 18.7269 48.3929 18.1961 48.6406 17.6102C48.8884 17.0243 49.0174 16.3951 49.0202 15.759C49.023 15.1229 48.8995 14.4926 48.6569 13.9046C48.4143 13.3165 48.0574 12.7825 47.6069 12.3334V12.3334Z" fill="white"/>
<path d="M46.6773 20.222C46.5873 20.222 46.5273 20.192 46.4673 20.132L43.0478 16.7125C42.988 16.6525 42.958 16.5925 42.958 16.5025C42.958 16.4127 42.988 16.3525 43.048 16.2927L47.3071 12.0334C47.3341 12.0049 47.3667 11.9823 47.4028 11.9668C47.4389 11.9513 47.4778 11.9434 47.5171 11.9434C47.5563 11.9434 47.5952 11.9513 47.6313 11.9668C47.6674 11.9823 47.7 12.0049 47.7271 12.0334L47.8171 12.0934C49.8268 14.1029 49.8268 17.3425 47.8471 19.382C47.5471 19.682 47.2173 19.952 46.8573 20.162C46.7673 20.192 46.7073 20.222 46.6773 20.222V20.222ZM43.6778 16.5025L46.7073 19.532C46.9473 19.382 47.1873 19.172 47.3671 18.9922C49.0768 17.2825 49.1668 14.4929 47.5171 12.6932L43.678 16.5025H43.6778Z" fill="#FF6C37"/>
<path d="M41.3383 19.8016C40.9921 19.4559 40.5228 19.2617 40.0336 19.2617C39.5443 19.2617 39.075 19.4559 38.7288 19.8016L27.4209 31.1095L29.3104 32.9992L41.2783 22.5011C42.0583 21.8411 42.1181 20.6713 41.4583 19.8916C41.3983 19.8616 41.3683 19.8316 41.3383 19.8016V19.8016Z" fill="white"/>
<path d="M29.2804 33.2995C29.1904 33.2995 29.1304 33.2695 29.0704 33.2095L27.1809 31.3197C27.1524 31.2926 27.1298 31.26 27.1143 31.2239C27.0988 31.1878 27.0908 31.149 27.0908 31.1097C27.0908 31.0704 27.0988 31.0315 27.1143 30.9954C27.1298 30.9593 27.1524 30.9268 27.1809 30.8997L38.4887 19.5918C38.6873 19.3922 38.9233 19.2338 39.1833 19.1257C39.4432 19.0176 39.722 18.9619 40.0035 18.9619C40.285 18.9619 40.5638 19.0176 40.8238 19.1257C41.0837 19.2338 41.3198 19.3922 41.5183 19.5918C41.7179 19.7903 41.8763 20.0263 41.9844 20.2863C42.0925 20.5463 42.1482 20.825 42.1482 21.1066C42.1482 21.3881 42.0925 21.6669 41.9844 21.9268C41.8763 22.1868 41.7179 22.4228 41.5183 22.6213L41.4283 22.7113L29.4604 33.2095C29.4304 33.2695 29.3704 33.2995 29.2804 33.2995V33.2995ZM27.8406 31.1097L29.3104 32.5795L41.0683 22.2613C41.7283 21.7213 41.7883 20.7316 41.2483 20.0718C40.7085 19.4118 39.7185 19.3518 39.0587 19.8918C39.0287 19.9218 38.9987 19.9518 38.9387 19.9818L27.8406 31.1099V31.1097Z" fill="#FF6C37"/>
<path d="M18.752 43.9776C18.6322 44.0376 18.5722 44.1576 18.602 44.2776L19.112 46.4371C19.232 46.7371 19.052 47.0971 18.722 47.1871C18.4822 47.2771 18.2122 47.1871 18.0622 47.0071L14.7627 43.7376L25.5308 32.9697L29.2504 33.0297L31.7699 35.5493C31.1699 36.059 27.5406 39.5686 18.752 43.9776V43.9776Z" fill="white"/>
<path d="M18.5118 47.4871C18.2718 47.4871 18.0318 47.3973 17.8818 47.2173L14.6122 43.9478C14.5525 43.8878 14.5225 43.8278 14.5225 43.738C14.5225 43.648 14.5525 43.588 14.6125 43.528L25.3804 32.7599C25.4404 32.6999 25.5304 32.6699 25.5904 32.6699L29.3099 32.7299C29.3996 32.7299 29.4599 32.7599 29.5197 32.8199L32.0392 35.3395C32.0992 35.3995 32.1292 35.4895 32.1292 35.5795C32.1292 35.6695 32.0992 35.7295 32.0092 35.7895L31.7992 35.9692C28.6199 38.7587 24.3006 41.5483 18.9315 44.2178L19.4415 46.3476C19.5315 46.7373 19.3515 47.1573 18.9915 47.3671C18.8115 47.4573 18.6615 47.4873 18.5118 47.4873V47.4871ZM15.2122 43.738L18.3018 46.7973C18.3918 46.9473 18.5718 47.0073 18.7215 46.9173C18.8715 46.8273 18.9315 46.6473 18.8415 46.4973L18.3318 44.3378C18.2718 44.0678 18.3918 43.8278 18.6318 43.708C23.9406 41.0385 28.2299 38.279 31.3794 35.5495L29.1599 33.3299L25.7104 33.2699L15.2122 43.738V43.738Z" fill="#FF6C37"/>
<path d="M12.2132 46.3168L14.7924 43.7373L18.632 47.5764L12.5129 47.1566C12.2429 47.1266 12.0629 46.8866 12.0932 46.6166C12.0932 46.4966 12.1232 46.3766 12.2129 46.3166L12.2132 46.3168Z" fill="white"/>
<path d="M18.6317 47.8468L12.4826 47.4271C12.0326 47.3971 11.7326 47.0071 11.7628 46.5571C11.7928 46.3771 11.8528 46.1973 12.0028 46.0773L14.5824 43.4978C14.6094 43.4694 14.642 43.4467 14.6781 43.4313C14.7142 43.4158 14.753 43.4079 14.7923 43.4079C14.8315 43.4079 14.8703 43.4158 14.9064 43.4313C14.9425 43.4467 14.9751 43.4694 15.0021 43.4978L18.8414 47.3368C18.9314 47.4271 18.9614 47.5471 18.9014 47.6668C18.8414 47.7868 18.7514 47.8468 18.6317 47.8468ZM14.7921 44.1578L12.4226 46.5273C12.3326 46.5871 12.3326 46.7371 12.4226 46.7971C12.4526 46.8271 12.4826 46.8571 12.5426 46.8571L17.8517 47.2171L14.7921 44.1575V44.1578ZM24.4805 34.3494C24.3005 34.3494 24.1805 34.1994 24.1805 34.0494C24.1805 33.9594 24.2105 33.8994 24.2705 33.8394L27.18 30.9299C27.2071 30.9014 27.2397 30.8788 27.2758 30.8633C27.3119 30.8478 27.3507 30.8398 27.39 30.8398C27.4293 30.8398 27.4682 30.8478 27.5043 30.8633C27.5404 30.8788 27.5729 30.9014 27.6 30.9299L29.4896 32.8196C29.5796 32.9096 29.6096 32.9996 29.5796 33.1196C29.5496 33.2096 29.4596 33.2996 29.3396 33.3296L24.5405 34.3492H24.4805V34.3494ZM27.39 31.5599L25.4103 33.5394L28.6498 32.8496L27.39 31.5599V31.5599Z" fill="#FF6C37"/>
<path d="M29.2505 33.0297L25.9512 33.7495C25.7112 33.8095 25.4712 33.6595 25.4112 33.4195C25.3812 33.2695 25.4112 33.1195 25.5312 32.9997L27.361 31.1699L29.2505 33.0297V33.0297Z" fill="white"/>
<path d="M25.8907 34.0494C25.7919 34.0504 25.6939 34.0317 25.6025 33.9943C25.511 33.957 25.4279 33.9018 25.3581 33.8319C25.2883 33.7621 25.233 33.679 25.1957 33.5876C25.1584 33.4961 25.1397 33.3981 25.1407 33.2994C25.1407 33.0896 25.2307 32.9096 25.3507 32.7596L27.1804 30.9298C27.2075 30.9014 27.2401 30.8787 27.2762 30.8633C27.3123 30.8478 27.3512 30.8398 27.3904 30.8398C27.4297 30.8398 27.4686 30.8478 27.5047 30.8633C27.5408 30.8787 27.5733 30.9014 27.6004 30.9298L29.49 32.8196C29.58 32.9096 29.61 32.9996 29.58 33.1196C29.55 33.2096 29.46 33.2996 29.34 33.3296L26.0407 34.0494H25.8907ZM27.3904 31.5598L25.7707 33.1794C25.7107 33.2396 25.7107 33.2996 25.7407 33.3594C25.7707 33.4194 25.8307 33.4494 25.9207 33.4494L28.6802 32.8494L27.3904 31.5598V31.5598ZM47.6367 15.2127C47.5767 15.0329 47.3667 14.9429 47.1867 15.0029C47.0069 15.0629 46.9169 15.2727 46.9769 15.4529C46.9769 15.4827 47.0069 15.5127 47.0069 15.5427C47.1869 15.9027 47.1269 16.3527 46.8869 16.6824C46.7669 16.8324 46.7969 17.0424 46.9169 17.1624C47.0669 17.2824 47.2767 17.2524 47.3967 17.1024C47.8467 16.5324 47.9367 15.8127 47.6367 15.2127V15.2127Z" fill="#FF6C37"/>
</svg>
