<svg width="68" height="60" viewBox="0 0 68 60" fill="none" xmlns="http://www.w3.org/2000/svg">
<path d="M55.447 19.4472C54.7293 19.201 54.0055 18.9729 53.2763 18.7631C53.3988 18.2626 53.5116 17.7681 53.6117 17.2824C55.2549 9.30552 54.1807 2.87921 50.5114 0.763366C46.9933 -1.26502 41.2398 0.850034 35.4291 5.90705C34.8565 6.40633 34.2965 6.92 33.7498 7.44757C33.3838 7.09675 33.0113 6.75275 32.6326 6.41573C26.5427 1.00862 20.4385 -1.27029 16.7732 0.851615C13.2583 2.88633 12.2175 8.9275 13.6969 16.4873C13.8441 17.2361 14.0103 17.9809 14.1953 18.7212C13.3313 18.9667 12.4975 19.228 11.6996 19.5062C4.55966 21.9956 0 25.8967 0 29.9432C0 34.1225 4.89501 38.3144 12.3316 40.8562C12.9345 41.0614 13.5424 41.2516 14.1547 41.4265C13.9559 42.2238 13.7793 43.0266 13.6252 43.8337C12.2149 51.2624 13.3162 57.1608 16.8217 59.1826C20.4422 61.2705 26.519 59.1246 32.4358 53.9522C32.9156 53.5317 33.3848 53.0993 33.843 52.6554C34.4351 53.2266 35.043 53.7813 35.6659 54.3187C41.3976 59.2505 47.0581 61.2421 50.5601 59.2147C54.1772 57.1207 55.3529 50.7843 53.8266 43.0751C53.7064 42.4711 53.5716 41.8701 53.4223 41.2727C53.849 41.1462 54.2679 41.0161 54.6762 40.8807C62.4072 38.3194 67.4374 34.1783 67.4374 29.9432C67.4374 25.8819 62.7305 21.9545 55.447 19.4472V19.4472ZM53.7703 38.1463C53.4015 38.2683 53.0232 38.3861 52.6375 38.5006C51.784 35.7987 50.6323 32.9257 49.2227 29.9572C50.5678 27.0595 51.6752 24.2231 52.5047 21.5388C53.1947 21.7385 53.864 21.949 54.5094 22.171C60.75 24.3196 64.5565 27.4957 64.5565 29.9432C64.5565 32.5501 60.4455 35.9343 53.7703 38.1463V38.1463ZM51.0006 43.6346C51.6755 47.0433 51.7716 50.1254 51.3246 52.535C50.9231 54.7001 50.1155 56.1434 49.1165 56.7216C46.9915 57.9519 42.4466 56.3528 37.545 52.1349C36.9655 51.6352 36.4001 51.1196 35.8493 50.5885C37.7497 48.5104 39.6487 46.0945 41.5022 43.4112C44.7624 43.122 47.8423 42.6488 50.6355 42.0032C50.77 42.544 50.8918 43.088 51.0006 43.6346V43.6346ZM22.9909 56.5091C20.9145 57.2422 19.2607 57.2633 18.261 56.6869C16.1339 55.4601 15.2495 50.7239 16.4558 44.3711C16.5992 43.6204 16.7633 42.8738 16.9481 42.1323C19.7104 42.7434 22.768 43.1828 26.0358 43.4478C27.902 46.0734 29.8558 48.4866 31.8249 50.5999C31.4064 51.0048 30.9781 51.3993 30.5402 51.7832C27.9236 54.0702 25.3017 55.693 22.9909 56.5091V56.5091ZM13.2636 38.1303C9.9752 37.0062 7.25953 35.5455 5.39815 33.9515C3.72539 32.5193 2.8811 31.097 2.8811 29.9432C2.8811 27.4875 6.54195 24.3554 12.6479 22.2266C13.389 21.9685 14.1645 21.7248 14.9693 21.4961C15.8133 24.2411 16.9202 27.1111 18.256 30.0133C16.9028 32.9584 15.7801 35.8743 14.9279 38.6516C14.3689 38.4915 13.814 38.3176 13.2636 38.1303V38.1303ZM16.5243 15.9339C15.2569 9.45699 16.0986 4.57121 18.2168 3.34495C20.4728 2.03888 25.4616 3.90105 30.7198 8.57003C31.0627 8.87518 31.4001 9.18652 31.7317 9.50388C29.7723 11.6079 27.8364 14.0032 25.9868 16.6133C22.8152 16.9072 19.7792 17.3793 16.9879 18.0118C16.8159 17.3232 16.6613 16.6305 16.5243 15.9341V15.9339ZM45.6138 23.117C44.9545 21.9782 44.2707 20.8537 43.563 19.7444C45.7146 20.0165 47.7762 20.3776 49.7122 20.8191C49.131 22.6821 48.4066 24.6296 47.5539 26.6264C46.9306 25.4438 46.2838 24.2738 45.6138 23.117V23.117ZM33.7511 11.5628C35.0798 13.0025 36.4107 14.6096 37.7196 16.3535C35.0643 16.2281 32.4045 16.2276 29.7491 16.3519C31.0594 14.6241 32.4016 13.0191 33.7511 11.5628ZM21.8123 23.1368C21.1507 24.2842 20.5159 25.447 19.9085 26.624C19.0698 24.6344 18.3519 22.6779 17.7658 20.7886C19.6899 20.3581 21.7417 20.0062 23.8797 19.7391C23.1641 20.8552 22.4747 21.988 21.8123 23.1365V23.1368ZM23.9411 40.3523C21.7322 40.1057 19.6496 39.7719 17.726 39.3531C18.3214 37.4301 19.055 35.432 19.9119 33.3996C20.5217 34.5776 21.1591 35.741 21.8236 36.889C22.507 38.0692 23.2145 39.2251 23.9411 40.3523ZM33.8307 48.5264C32.465 47.0533 31.1031 45.4235 29.7731 43.6707C31.0644 43.7212 32.3807 43.7471 33.7187 43.7471C35.0933 43.7471 36.452 43.7162 37.7894 43.6567C36.4763 45.4412 35.1504 47.0734 33.8307 48.5264ZM47.581 33.2958C48.4825 35.3506 49.2422 37.3381 49.8454 39.2282C47.8903 39.6745 45.7792 40.0338 43.5548 40.3006C44.2676 39.1707 44.9578 38.0267 45.6251 36.8692C46.3035 35.6928 46.9556 34.5013 47.581 33.2958V33.2958ZM43.1296 35.4299C42.1081 37.2044 41.0292 38.9453 39.8945 40.6497C37.8391 40.7953 35.7792 40.8676 33.7187 40.8665C31.62 40.8665 29.5787 40.8012 27.613 40.6737C26.4487 38.9732 25.3491 37.2293 24.3167 35.4457H24.317C23.2894 33.6715 22.3296 31.859 21.4396 30.012C22.3273 28.1645 23.2842 26.3511 24.3083 24.5756L24.308 24.5759C25.3317 22.7999 26.4225 21.0635 27.5779 19.3703C29.5834 19.2186 31.64 19.1395 33.7184 19.1395H33.7187C35.8066 19.1395 37.8658 19.2193 39.8708 19.3721C41.0146 21.0628 42.0984 22.7932 43.1201 24.5603C44.1476 26.3319 45.1172 28.1365 46.0273 29.9711C45.1265 31.8245 44.16 33.6453 43.1296 35.4299V35.4299ZM49.0726 3.25908C51.3307 4.56146 52.2089 9.81341 50.7901 16.7007C50.6995 17.1401 50.5978 17.5877 50.4872 18.0416C47.689 17.3956 44.6509 16.9154 41.47 16.6169C39.6171 13.9782 37.697 11.5792 35.7695 9.5023C36.2746 9.01536 36.7918 8.54105 37.3205 8.0798C42.2993 3.74721 46.9525 2.03651 49.0726 3.25908V3.25908ZM33.7187 23.9213C37.0445 23.9213 39.7406 26.6174 39.7406 29.9432C39.7406 33.269 37.0445 35.9652 33.7187 35.9652C30.3929 35.9652 27.6967 33.269 27.6967 29.9432C27.6967 26.6174 30.3929 23.9213 33.7187 23.9213V23.9213Z" fill="#00D8FF"/>
</svg>
